Coordinates
version=1
nRows=18
nColumns=22
inDegrees=yes

Units are S.I. units (second, meters, Newtons, ...)
If the header above contains a line with 'inDegrees', this indicates whether rotational values are in degrees (yes) or radians (no).

endheader
time	pelvis_tilt	pelvis_list	pelvis_rotation	pelvis_tx	pelvis_ty	pelvis_tz	hip_flexion_r	hip_adduction_r	hip_rotation_r	knee_angle_r	ankle_angle_r	subtalar_angle_r	hip_flexion_l	hip_adduction_l	hip_rotation_l	knee_angle_l	ankle_angle_l	subtalar_angle_l	lumbar_extension	lumbar_bending	lumbar_rotation
      0.01000000	     -3.60564267	     -4.15717106	     -0.69230975	     -1.16995472	      0.95704840	      0.09037351	      8.43496780	      4.83072429	      0.93438664	    -15.49920182	      9.98976583	     -3.01873673	     11.16707663	     -6.55202504	     -5.08414728	    -22.35885225	     13.14383505	     -2.42670197	     -3.77747089	      1.86126750	     -0.23981253
      0.02000000	     -3.64055890	     -3.91765471	     -0.73069821	     -1.17010071	      0.95660488	      0.09038260	      8.30890011	      4.57339469	      1.54808351	    -15.22209692	     10.76607410	     -2.91322819	     11.21502521	     -6.29401958	     -5.14173224	    -22.38264380	     13.16897378	     -2.45551527	     -3.69687569	      1.58473307	     -0.23632868
      0.03000000	     -3.60074270	     -3.94904590	     -0.73511887	     -1.17023285	      0.95668894	      0.09040459	      8.30012105	      4.61027738	      1.47994249	    -15.28066324	     10.69041984	     -2.87171423	     11.19122299	     -6.32878973	     -5.13104319	    -22.40259431	     13.16287661	     -2.46782547	     -3.70576232	      1.62097384	     -0.24507999
      0.04000000	     -3.56696679	     -3.96374229	     -0.74273287	     -1.17039066	      0.95676260	      0.09043853	      8.30519549	      4.63245834	      1.44751187	    -15.35205536	     10.64248701	     -2.86216107	     11.16893220	     -6.34680232	     -5.13012895	    -22.40998771	     13.15683163	     -2.47118095	     -3.70765392	      1.63781158	     -0.27250237
      0.05000000	     -3.53496512	     -3.97683875	     -0.75135920	     -1.17055766	      0.95683095	      0.09047033	      8.30649339	      4.64951158	      1.39967252	    -15.40432196	     10.58972626	     -2.85527318	     11.15061263	     -6.36418648	     -5.13799683	    -22.42086133	     13.14851722	     -2.47437959	     -3.70790988	      1.65295046	     -0.29549535
      0.06000000	     -3.50984500	     -3.98061644	     -0.75918378	     -1.17072536	      0.95687990	      0.09050231	      8.30229841	      4.65560040	      1.37889130	    -15.42806812	     10.56254351	     -2.85147012	     11.13905577	     -6.37198633	     -5.14937995	    -22.42964971	     13.14050766	     -2.47600997	     -3.70003701	      1.65767233	     -0.32376552
      0.07000000	     -3.49140295	     -3.97680913	     -0.77386888	     -1.17090176	      0.95690640	      0.09054518	      8.29903384	      4.65278233	      1.38178593	    -15.43165707	     10.55937406	     -2.84969155	     11.13263744	     -6.37216426	     -5.16017437	    -22.43737345	     13.13422513	     -2.47572024	     -3.68809887	      1.65372446	     -0.34882969
      0.08000000	     -3.47213970	     -3.95340218	     -0.79665729	     -1.17105931	      0.95692257	      0.09059974	      8.28646641	      4.63059531	      1.43354930	    -15.41875368	     10.59362395	     -2.84154859	     11.12026179	     -6.35480076	     -5.20172608	    -22.44039281	     13.11179590	     -2.47010300	     -3.67465170	      1.62494840	     -0.36527469
      0.09000000	     -3.45964244	     -3.93020777	     -0.82830462	     -1.17121942	      0.95691816	      0.09067856	      8.27948048	      4.61001435	      1.50291563	    -15.39815152	     10.64050777	     -2.83227976	     11.11391467	     -6.33903659	     -5.23926838	    -22.44520292	     13.10421317	     -2.46512620	     -3.65612301	      1.59383534	     -0.38122849
      0.10000000	     -3.44808319	     -3.91409729	     -0.85382594	     -1.17136231	      0.95690577	      0.09074647	      8.27319735	      4.59500883	      1.55996664	    -15.37858816	     10.67505077	     -2.82675863	     11.11293916	     -6.33001155	     -5.27174934	    -22.45758311	     13.10235353	     -2.46289317	     -3.63404275	      1.57292177	     -0.41773931
      0.11000000	     -3.43840508	     -3.89677747	     -0.89778412	     -1.17150269	      0.95688906	      0.09085286	      8.26903156	      4.58353007	      1.63675344	    -15.36153601	     10.72327116	     -2.81905814	     11.11341490	     -6.32298871	     -5.31103034	    -22.47712406	     13.09910574	     -2.45954161	     -3.61172847	      1.54672666	     -0.43135889
      0.12000000	     -3.43075288	     -3.88857254	     -0.96964250	     -1.17163777	      0.95687800	      0.09101245	      8.28128964	      4.58732459	      1.71104823	    -15.37406947	     10.74793163	     -2.80355643	     11.10792509	     -6.33224428	     -5.37496881	    -22.49242146	     13.10057456	     -2.45554607	     -3.58857519	      1.52853217	     -0.40636317
      0.13000000	     -3.41409672	     -3.89166106	     -1.01409685	     -1.17175578	      0.95688745	      0.09112760	      8.28399742	      4.59835079	      1.72083278	    -15.39356400	     10.74080293	     -2.80118562	     11.09936596	     -6.34329584	     -5.38538325	    -22.51261305	     13.10156477	     -2.45598033	     -3.57381576	      1.52680582	     -0.43368741
      0.14000000	     -3.39446462	     -3.90798762	     -1.06712258	     -1.17186577	      0.95690704	      0.09128483	      8.29507177	      4.62946297	      1.73442664	    -15.44291767	     10.71223524	     -2.79880055	     11.09232667	     -6.37719429	     -5.42395549	    -22.54533637	     13.10746813	     -2.45931935	     -3.56158763	      1.53641991	     -0.45303771
      0.15000000	     -3.37835014	     -3.93208355	     -1.13254220	     -1.17196552	      0.95692904	      0.09146061	      8.30965233	      4.67088589	      1.73748104	    -15.49473855	     10.66614846	     -2.79895975	     11.08746106	     -6.42089117	     -5.47029209	    -22.58042544	     13.11824745	     -2.46506032	     -3.54580325	      1.55689572	     -0.46045642
      0.16000000	     -3.37457515	     -3.96469805	     -1.20952804	     -1.17205028	      0.95693380	      0.09166487	      8.32512493	      4.72432215	      1.75643318	    -15.52526587	     10.60728651	     -2.80675323	     11.10023124	     -6.47955765	     -5.53671928	    -22.62978074	     13.14142672	     -2.47604792	     -3.51397699	      1.58575716	     -0.44624014
      0.17000000	     -3.35812962	     -3.97563184	     -1.26771331	     -1.17211989	      0.95695466	      0.09182857	      8.33319107	      4.75045065	      1.77476540	    -15.57036113	     10.58286694	     -2.81066817	     11.08813874	     -6.50389973	     -5.56542674	    -22.65329249	     13.14669958	     -2.48021449	     -3.49408027	      1.59416327	     -0.48355063
      0.18000000	     -3.35689384	     -3.99333640	     -1.35579201	     -1.17218269	      0.95694209	      0.09204545	      8.34280385	      4.78898635	      1.84077011	    -15.58196413	     10.55789749	     -2.82081531	     11.09739061	     -6.54870858	     -5.65206278	    -22.69866964	     13.16778117	     -2.49547268	     -3.45694418	      1.60982171	     -0.46483812
